<?xml version="1.0" encoding="utf-8"?>
<!-- Generator: Adobe Illustrator 26.0.3, SVG Export Plug-In . SVG Version: 6.00 Build 0)  -->
<svg version="1.0" id="katman_1" xmlns="http://www.w3.org/2000/svg" xmlns:xlink="http://www.w3.org/1999/xlink" x="0px" y="0px"
	 viewBox="0 0 600 450" style="enable-background:new 0 0 600 450;" xml:space="preserve">
<style type="text/css">
	.st0{fill:#010202;}
</style>
<g>
	<g>
		<path class="st0" d="M300.1,268.7c-47.9,0-86.9-39-86.9-86.9s39-86.9,86.9-86.9s86.9,39,86.9,86.9
			C387,229.8,348,268.7,300.1,268.7z M300.1,105.8c-41.9,0-76,34.1-76,76s34.1,76,76,76s76-34.1,76-76S342,105.8,300.1,105.8z"/>
	</g>
	<g>
		<path class="st0" d="M381.3,193.1c-9,0-21.9-4.7-32.5-26.9c-3.1-6.5-5.3-12.9-6.6-17.6c-12.8,7.1-27.3,10.9-42.1,10.9
			s-29.3-3.7-42.1-10.9c-1.4,4.7-3.5,11.1-6.6,17.6c-10.6,22.2-23.5,26.9-32.5,26.9c-3,0-5.4-2.4-5.4-5.4c0-3,2.4-5.4,5.4-5.4
			c21,0,30.3-42.7,30.4-43.2c0.4-1.8,1.6-3.3,3.3-3.9c1.7-0.7,3.6-0.5,5.1,0.5c12.6,8.5,27.3,13,42.5,13c15.2,0,29.9-4.5,42.5-13
			c1.5-1,3.4-1.2,5.1-0.5c1.7,0.7,2.9,2.2,3.3,3.9c2.5,12,12.7,43.2,30.4,43.2c3,0,5.4,2.4,5.4,5.4
			C386.8,190.6,384.3,193.1,381.3,193.1z"/>
	</g>
	<g>
		<path class="st0" d="M417.3,380.8H182.9c-7.8,0-15.1-3.7-20.1-10.3c-5.5-7.3-7.3-17.1-4.7-26.2c8.1-28.5,27.5-54,54.5-71.7
			c2.5-1.6,5.9-0.9,7.5,1.6c1.6,2.5,0.9,5.9-1.6,7.5c-24.9,16.3-42.6,39.6-50,65.6c-1.7,5.8-0.6,12.1,2.9,16.7
			c2.9,3.8,6.9,5.9,11.4,5.9h234.4c4.4,0,8.7-2.2,11.6-6c3.4-4.4,4.5-10.3,3-15.8c-7-25.5-24.1-48.6-48-64.9
			c-2.5-1.7-3.1-5.1-1.4-7.5c1.7-2.5,5.1-3.1,7.5-1.4c26.1,17.8,44.7,43,52.4,71c2.4,8.7,0.6,18.1-4.8,25.2
			C432.5,377,425.2,380.8,417.3,380.8z"/>
	</g>
	<g>
		<path class="st0" d="M317.6,245.9h-12.4c-8.9,0-16.1-7.2-16.1-16.1c0-8.9,7.2-16.1,16.1-16.1h12.4c8.9,0,16.1,7.2,16.1,16.1
			C333.7,238.7,326.5,245.9,317.6,245.9z M305.2,224.6c-2.9,0-5.2,2.3-5.2,5.2c0,2.9,2.3,5.2,5.2,5.2h12.4c2.9,0,5.2-2.3,5.2-5.2
			c0-2.9-2.3-5.2-5.2-5.2H305.2z"/>
	</g>
	<g>
		<path class="st0" d="M384.6,235.2h-55.4c-3,0-5.4-2.4-5.4-5.4c0-3,2.4-5.4,5.4-5.4h55.4c4,0,7.3-3.3,7.3-7.3l-0.1-7.2
			c0-1.4,0.6-2.8,1.6-3.9s2.4-1.6,3.9-1.6c7.4,0,13.5-6,13.5-13.5v-25.6c0-7.4-6-13.4-13.5-13.4c-2.9,0-5.2-2.2-5.4-5.1
			c-14.5-39.5-51.2-66-91.7-66c-40.5,0-77.3,26.5-91.7,66c-0.2,2.9-2.5,5.1-5.4,5.1c-7.4,0-13.5,6-13.5,13.4V191
			c0,7.4,6,13.5,13.5,13.5c3,0,5.4,2.4,5.4,5.4s-2.4,5.4-5.4,5.4c-13.4,0-24.3-10.9-24.3-24.3v-25.6c0-12,8.7-22,20.2-24
			C215.3,98.5,255.7,70,300.1,70c44.5,0,84.9,28.6,101.3,71.4c11.4,2,20.2,12,20.2,24V191c0,11.5-8.1,21.2-18.8,23.7l0,2.4
			C402.7,227.1,394.6,235.2,384.6,235.2z"/>
	</g>
</g>
<g>
	<path class="st0" d="M283.3,320.7c-1.4,0-2.8-0.5-3.8-1.6l-51.2-51.2c-2.1-2.1-2.1-5.6,0-7.7l14-14c2.1-2.1,5.6-2.1,7.7,0
		l51.2,51.2c2.1,2.1,2.1,5.6,0,7.7l-14,14C286,320.2,284.7,320.7,283.3,320.7z M239.7,264.1l43.5,43.5l6.4-6.4l-43.5-43.5
		L239.7,264.1z"/>
</g>
<g>
	<path class="st0" d="M316.9,320.7c-1.4,0-2.8-0.5-3.8-1.6l-14-14c-2.1-2.1-2.1-5.6,0-7.7l51.2-51.2c2.1-2.1,5.6-2.1,7.7,0l14,14
		c2.1,2.1,2.1,5.6,0,7.7l-51.2,51.2C319.7,320.2,318.3,320.7,316.9,320.7z M310.6,301.2l6.4,6.4l43.5-43.5l-6.4-6.4L310.6,301.2z"/>
</g>
</svg>
